<svg width="14" height="14" viewBox="0 0 14 14" fill="none" xmlns="http://www.w3.org/2000/svg">
<path d="M11.8125 8.75H10.9375C10.8215 8.75 10.7102 8.79609 10.6281 8.87814C10.5461 8.96019 10.5 9.07147 10.5 9.1875V12.25H1.75V3.5H5.6875C5.80353 3.5 5.91481 3.45391 5.99686 3.37186C6.07891 3.28981 6.125 3.17853 6.125 3.0625V2.1875C6.125 2.07147 6.07891 1.96019 5.99686 1.87814C5.91481 1.79609 5.80353 1.75 5.6875 1.75H1.3125C0.964403 1.75 0.630564 1.88828 0.384422 2.13442C0.138281 2.38056 0 2.7144 0 3.0625L0 12.6875C0 13.0356 0.138281 13.3694 0.384422 13.6156C0.630564 13.8617 0.964403 14 1.3125 14H10.9375C11.2856 14 11.6194 13.8617 11.8656 13.6156C12.1117 13.3694 12.25 13.0356 12.25 12.6875V9.1875C12.25 9.07147 12.2039 8.96019 12.1219 8.87814C12.0398 8.79609 11.9285 8.75 11.8125 8.75ZM13.3438 0H9.84375C9.25941 0 8.96738 0.708477 9.37891 1.12109L10.3559 2.09809L3.69141 8.76012C3.63023 8.82108 3.58168 8.89353 3.54856 8.9733C3.51544 9.05307 3.49839 9.13859 3.49839 9.22496C3.49839 9.31133 3.51544 9.39685 3.54856 9.47662C3.58168 9.55639 3.63023 9.62884 3.69141 9.68981L4.31129 10.3086C4.37226 10.3698 4.4447 10.4183 4.52447 10.4514C4.60424 10.4846 4.68976 10.5016 4.77613 10.5016C4.8625 10.5016 4.94803 10.4846 5.02779 10.4514C5.10756 10.4183 5.18001 10.3698 5.24098 10.3086L11.9022 3.64547L12.8789 4.62109C13.2891 5.03125 14 4.74414 14 4.15625V0.65625C14 0.482202 13.9309 0.315282 13.8078 0.192211C13.6847 0.0691404 13.5178 0 13.3438 0Z" fill="white"/>
</svg>
